<svg xmlns="http://www.w3.org/2000/svg" xmlns:xlink="http://www.w3.org/1999/xlink" viewBox="0 0 237.85 250"><defs><clipPath id="a" transform="translate(0 0.01)"><rect x="-12.15" width="250" height="250" fill="none"/></clipPath><linearGradient id="b" x1="-1617.81" y1="111.87" x2="-1600.47" y2="129.19" gradientTransform="translate(22771.67 -1576.06) scale(14.08)" gradientUnits="userSpaceOnUse"><stop offset="0" stop-color="#7000ff"/><stop offset="1" stop-color="#ac22cf"/><stop offset="1" stop-color="#9180bb"/></linearGradient></defs><g clip-path="url(#a)"><path d="M0,0H237.85V250H0Z" transform="translate(0 0.01)" fill-opacity="0" fill-rule="evenodd"/><path d="M0,86.25,45.51,23.79,119,0l73.47,24,45.38,62.53v77.25l-45.47,62.47L118.83,250,45.37,226,0,163.51Z" transform="translate(0 0.01)" fill-rule="evenodd" fill="url(#b)"/><path d="M112.84,99.42l17,8.5V160l-17,8.5-17-8.5V107.92Z" transform="translate(0 0.01)" fill-opacity="0" fill-rule="evenodd"/><path d="M118.9,80.45l29.59,14.8v90.66l-29.59,14.8-29.6-14.8V95.25Z" transform="translate(0 0.01)" fill="none" stroke="#fff" stroke-linejoin="round" stroke-width="8"/><path d="M112.84,81.51l17,8.49v52.08l-17,8.5-17-8.5V90Z" transform="translate(0 0.01)" fill-opacity="0" fill-rule="evenodd"/><path d="M118.9,49.27l29.59,14.78v90.66l-29.59,14.8-29.6-14.8V64.05Z" transform="translate(0 0.01)" fill="none" stroke="#fff" stroke-linejoin="round" stroke-width="8"/></g></svg>
