<svg xmlns="http://www.w3.org/2000/svg" fill="none" viewBox="0 0 19 19"><path fill="currentColor" d="M5.27778 10.5556C4.69481 10.5556 4.22222 10.083 4.22222 9.5C4.22222 8.91703 4.69481 8.44444 5.27778 8.44444C5.86074 8.44444 6.33333 8.91703 6.33333 9.5C6.33333 10.083 5.86074 10.5556 5.27778 10.5556Z"/><path fill="currentColor" d="M5.27778 14.7778C4.69481 14.7778 4.22222 14.3052 4.22222 13.7222C4.22222 13.1393 4.69481 12.6667 5.27778 12.6667C5.86074 12.6667 6.33333 13.1393 6.33333 13.7222C6.33333 14.3052 5.86074 14.7778 5.27778 14.7778Z"/><path fill="currentColor" d="M8.44444 13.7222C8.44444 14.3052 8.91703 14.7778 9.5 14.7778C10.083 14.7778 10.5556 14.3052 10.5556 13.7222C10.5556 13.1393 10.083 12.6667 9.5 12.6667C8.91703 12.6667 8.44444 13.1393 8.44444 13.7222Z"/><path fill="currentColor" d="M13.7222 14.7778C13.1393 14.7778 12.6667 14.3052 12.6667 13.7222C12.6667 13.1393 13.1393 12.6667 13.7222 12.6667C14.3052 12.6667 14.7778 13.1393 14.7778 13.7222C14.7778 14.3052 14.3052 14.7778 13.7222 14.7778Z"/><path fill="currentColor" d="M8.44444 9.5C8.44444 10.083 8.91703 10.5556 9.5 10.5556C10.083 10.5556 10.5556 10.083 10.5556 9.5C10.5556 8.91703 10.083 8.44444 9.5 8.44444C8.91703 8.44444 8.44444 8.91703 8.44444 9.5Z"/><path fill="currentColor" d="M13.7222 10.5556C13.1393 10.5556 12.6667 10.083 12.6667 9.5C12.6667 8.91703 13.1393 8.44444 13.7222 8.44444C14.3052 8.44444 14.7778 8.91703 14.7778 9.5C14.7778 10.083 14.3052 10.5556 13.7222 10.5556Z"/><path fill="currentColor" d="M5.27778 4.22222C4.69481 4.22222 4.22222 4.69481 4.22222 5.27778C4.22222 5.86074 4.69481 6.33333 5.27778 6.33333H13.7222C14.3052 6.33333 14.7778 5.86074 14.7778 5.27778C14.7778 4.69481 14.3052 4.22222 13.7222 4.22222H5.27778Z"/><path fill="currentColor" fill-rule="evenodd" d="M3.16667 0C1.41777 0 0 1.41777 0 3.16667V15.8333C0 17.5822 1.41777 19 3.16667 19H15.8333C17.5822 19 19 17.5822 19 15.8333V3.16667C19 1.41777 17.5822 0 15.8333 0H3.16667ZM15.8333 2.11111H3.16667C2.5837 2.11111 2.11111 2.5837 2.11111 3.16667V15.8333C2.11111 16.4163 2.5837 16.8889 3.16667 16.8889H15.8333C16.4163 16.8889 16.8889 16.4163 16.8889 15.8333V3.16667C16.8889 2.5837 16.4163 2.11111 15.8333 2.11111Z" clip-rule="evenodd"/></svg>