<svg viewBox="0 0 22 22" fill="none" xmlns="http://www.w3.org/2000/svg">
<path fill-rule="evenodd" clip-rule="evenodd" d="M16.319 14.4326C18.7628 11.2941 18.542 6.75345 15.6569 3.86827C12.5327 0.744078 7.46734 0.744078 4.34315 3.86827C1.21895 6.99247 1.21895 12.0578 4.34315 15.182C7.22833 18.0672 11.769 18.2879 14.9075 15.8442C14.921 15.8595 14.9351 15.8744 14.9497 15.8891L19.1924 20.1317C19.5829 20.5223 20.2161 20.5223 20.6066 20.1317C20.9971 19.7412 20.9971 19.108 20.6066 18.7175L16.364 14.4749C16.3493 14.4602 16.3343 14.4461 16.319 14.4326ZM14.2426 5.28249C16.5858 7.62563 16.5858 11.4246 14.2426 13.7678C11.8995 16.1109 8.1005 16.1109 5.75736 13.7678C3.41421 11.4246 3.41421 7.62563 5.75736 5.28249C8.1005 2.93934 11.8995 2.93934 14.2426 5.28249Z" fill="currentColor"/>
</svg>
