<svg width="25" height="25" viewBox="0 0 25 25" fill="none" xmlns="http://www.w3.org/2000/svg">
<path fill-rule="evenodd" clip-rule="evenodd" d="M3.75 2.5H21.25C21.9404 2.5 22.5 3.05964 22.5 3.75V21.25C22.5 21.9404 21.9404 22.5 21.25 22.5H3.75C3.05964 22.5 2.5 21.9404 2.5 21.25V3.75C2.5 3.05964 3.05964 2.5 3.75 2.5ZM0 3.75C0 1.67893 1.67893 0 3.75 0H21.25C23.3211 0 25 1.67893 25 3.75V21.25C25 23.3211 23.3211 25 21.25 25H3.75C1.67893 25 0 23.3211 0 21.25V3.75ZM12.5 12.5C9.04822 12.5 6.25 9.14214 6.25 5H8.75C8.75 8.20757 10.8364 10 12.5 10C14.1636 10 16.25 8.20757 16.25 5H18.75C18.75 9.14214 15.9518 12.5 12.5 12.5Z" fill="#7000FF"/>
</svg>
