<svg width="50" height="50" viewBox="0 0 50 50" fill="none" xmlns="http://www.w3.org/2000/svg">
<path fill-rule="evenodd" clip-rule="evenodd" d="M17.9968 0C18.6571 6.54831 23.7639 11.7533 30.1886 12.4263V12.5737C23.4524 13.2793 18.165 18.967 17.9324 25.9614H17.9165C17.6732 18.6435 11.8968 12.7561 4.71704 12.5081V12.4918C11.5795 12.2548 17.1599 6.86577 17.8522 0H17.9968Z" fill="#FFCF00"/>
<path fill-rule="evenodd" clip-rule="evenodd" d="M37.808 21.1538C38.4683 27.7021 43.5752 32.9071 50 33.58V33.7273C43.2636 34.4328 37.9761 40.1206 37.7436 47.1152H37.7278C37.4846 39.7973 31.7082 33.9098 24.5284 33.6618V33.6455C31.3908 33.4085 36.9711 28.0195 37.6635 21.1538H37.808Z" fill="#FFCF00"/>
<path fill-rule="evenodd" clip-rule="evenodd" d="M9.8365 30.769C10.3256 35.6198 14.1086 39.4755 18.8678 39.9738V40.083C13.8779 40.6055 9.96122 44.8186 9.78887 49.9997H9.77736C9.59705 44.5792 5.3183 40.2182 0 40.0345V40.0223C5.08334 39.8467 9.21696 35.8548 9.72973 30.769H9.8365Z" fill="#FFCF00"/>
</svg>
