<svg width="16" height="19" viewBox="0 0 16 19" fill="none" xmlns="http://www.w3.org/2000/svg">
<path fill-rule="evenodd" clip-rule="evenodd" d="M12.9545 5.18182C12.9545 8.04366 10.6346 10.3636 7.77273 10.3636C4.91089 10.3636 2.59091 8.04366 2.59091 5.18182C2.59091 2.31998 4.91089 0 7.77273 0C10.6346 0 12.9545 2.31998 12.9545 5.18182ZM10.3636 5.18182C10.3636 6.61274 9.20365 7.77273 7.77273 7.77273C6.34181 7.77273 5.18182 6.61274 5.18182 5.18182C5.18182 3.7509 6.34181 2.59091 7.77273 2.59091C9.20365 2.59091 10.3636 3.7509 10.3636 5.18182Z" fill="currentColor"/>
<path d="M12.9545 15.1136C12.9545 14.3982 12.3745 13.8182 11.6591 13.8182H3.88636C3.1709 13.8182 2.59091 14.3982 2.59091 15.1136V19H0V15.1136C0 12.9673 1.73998 11.2273 3.88636 11.2273H11.6591C13.8055 11.2273 15.5455 12.9673 15.5455 15.1136V19H12.9545V15.1136Z" fill="currentColor"/>
</svg>
