<svg xmlns="http://www.w3.org/2000/svg" fill="none" viewBox="0 0 36 225"><path fill="#2F2E41" d="M1.33458 210C1.33458 210 -1.48899 222.76 1.07789 223.315C3.64477 223.869 16.2224 223.69 19.3026 224.245C22.3828 224.8 28.8 223.869 28.8 221.373C28.8 218.876 22.1262 217.212 22.1262 217.212C22.1262 217.212 12.6288 211.664 12.3721 211.387C12.1154 211.11 1.33458 210 1.33458 210Z"/><path fill="#2F2E41" d="M4.69562 116.891C4.69562 116.891 5.60119 128.39 5.60119 129.404C5.60119 130.419 0.167639 183.855 1.37509 194.678C2.58255 205.5 1.26332 208.957 1.26332 210.986C1.26332 213.015 11.0348 212.264 11.0348 212.264L21.6 137.521L16.1665 115.2L4.69562 116.891Z"/><path fill="#2F2E41" d="M4.73831 212.595C4.73831 212.595 2.17706 222.42 4.73831 222.966C7.29957 223.512 19.8498 222.34 22.9233 222.886C25.9968 223.432 32.4 223.512 32.4 221.055C32.4 218.599 25.7407 216.962 25.7407 216.962C25.7407 216.962 16.264 211.504 16.0079 211.231C15.7517 210.958 4.73831 212.595 4.73831 212.595Z"/><path fill="#2F2E41" d="M1.44687 103.2C1.44687 103.2 -2.18036 112.997 2.05141 118.065C6.28318 123.132 11.1195 133.267 11.1195 133.943C11.1195 134.618 2.65599 201.846 3.86504 206.238C5.0741 210.63 4.77183 213.333 4.46957 214.008C4.16732 214.684 7.49227 218.4 11.1195 218.4C14.7467 218.4 20.1876 215.36 20.7921 212.657C21.3966 209.954 19.8853 186.644 20.1876 182.252C20.4898 177.86 32.5807 107.592 31.0693 105.903C29.558 104.213 1.44687 103.2 1.44687 103.2Z"/><path fill="#9F616A" d="M24.6 26.4C30.2333 26.4 34.8 21.296 34.8 15C34.8 8.70396 30.2333 3.60001 24.6 3.60001C18.9667 3.60001 14.4 8.70396 14.4 15C14.4 21.296 18.9667 26.4 24.6 26.4Z"/><path fill="#9F616A" d="M18 20.7023C18 20.7023 20.1906 32.6712 18.6259 33.9652C17.0612 35.2591 30.5175 37.2 30.5175 37.2C30.5175 37.2 32.0821 21.3493 32.3951 19.7318C32.708 18.1144 18 20.7023 18 20.7023Z"/><path fill="#00BFA6" d="M31.8838 36.6125C31.8838 36.6125 33.8147 24.8607 19.146 28.196C19.146 28.196 5.75296 40.431 6.35168 51.771C6.9504 63.111 1.64828 95.9807 2.24701 98.3155C2.84574 100.65 -1.34533 103.652 0.450843 104.653C2.24701 105.653 34.578 111.657 35.4761 104.653C36.3742 97.6484 35.1767 79.9713 35.7755 76.636C36.3742 73.3008 35.7755 45.2842 33.9793 41.949C32.1831 38.6137 31.8838 36.6125 31.8838 36.6125Z"/><path fill="#9F616A" d="M25.7093 118.292C25.7093 118.292 21.1493 138 26.9253 138C32.7012 138 32.3972 117.6 32.3972 117.6L25.7093 118.292Z"/><path fill="#2F2E41" d="M28.7812 16.7855C28.6489 17.743 27.2975 18.1407 25.3138 17.9542L25.3108 17.9537C24.4707 17.8676 23.6379 17.7117 22.8194 17.4874C21.5815 17.1542 20.8839 18.3592 20.4341 20.0273C19.6956 22.779 19.6399 26.7987 18.9902 27.3227C14.4551 30.0653 1.05455 11.6774 7.92136 6.91665C10.3671 5.22106 18.5999 -1.10973 24.2878 0.169373C29.9758 1.44848 27.6731 9.17244 27.6731 9.17244C27.6731 9.17244 27.8818 10.1863 28.1184 11.4886C28.4553 13.1292 28.6831 14.7944 28.8 16.4711C28.8 16.5763 28.7937 16.6813 28.7812 16.7855Z"/><path fill="#00BFA6" d="M29.3807 40.8036C29.3807 40.8036 19.4996 40.1392 18.6277 56.75C17.7559 73.3609 18.0465 88.975 18.0465 89.3072C18.0465 89.6395 22.1152 121.2 25.8932 121.2C29.6713 121.2 32.5775 120.536 33.4493 118.874C34.3212 117.213 31.1244 93.2938 31.1244 93.2938C31.1244 93.2938 29.6713 68.0453 31.9962 60.0722C34.3212 52.099 34.6118 41.8003 29.3807 40.8036Z"/><path fill="#000" d="M17.64 61.7514L14.4 97.5892L25.2 122.4L18.18 97.0378L17.64 61.2" opacity=".1"/><path fill="#000" d="M32.6049 64.8L33.6 106.8L30 83.9833L32.6049 64.8Z" opacity=".1"/></svg>